<?xml version="1.0" encoding="utf-8"?>
<!-- Generator: Adobe Illustrator 26.0.3, SVG Export Plug-In . SVG Version: 6.00 Build 0)  -->
<svg version="1.1" id="Layer_1" xmlns="http://www.w3.org/2000/svg" xmlns:xlink="http://www.w3.org/1999/xlink" x="0px" y="0px"
	 viewBox="0 0 114 32" style="enable-background:new 0 0 114 32;" xml:space="preserve">
<style type="text/css">
	.st0{fill-rule:evenodd;clip-rule:evenodd;}
	.st1{fill-rule:evenodd;clip-rule:evenodd;fill:#FD4974;}
</style>
<path id="Fill-" class="st0" d="M10.3,6c3.2,0,6.4,1.3,7.3,4.9c0.1,0.4-0.2,0.8-0.6,0.8l0,0h-2.3c-0.3,0-0.5-0.2-0.6-0.4
	c-0.7-1.7-2.2-1.9-3.8-1.9c-2.3,0-4,1-4,4.8l0,0v2.1c0,3.1,1.7,4.8,4,4.8c2.2,0,4.1-1.3,4.1-4.3l0,0h-3c-0.4,0-0.7-0.3-0.7-0.6l0,0
	v-1.4c0-0.4,0.3-0.6,0.7-0.6l0,0h5.9c0.4,0,0.7,0.3,0.7,0.6l0,0v1.8c0,5.3-3.9,7.8-7.6,7.8c-3.8,0-7.6-2.4-7.6-7.8l0,0v-2.9
	C2.7,8.4,6.6,6,10.3,6z M26.6,10.6c3,0,6.4,1.2,6.4,6.9c0,5.7-3.4,6.9-6.4,6.9c-3,0-6.4-1.2-6.4-6.9C20.1,11.8,23.6,10.6,26.6,10.6z
	 M42.8,6c3.2,0,6.4,1.3,7.3,4.9c0.1,0.4-0.2,0.8-0.6,0.8l0,0h-2.3c-0.3,0-0.5-0.2-0.6-0.4c-0.7-1.7-2.2-1.9-3.8-1.9
	c-2.3,0-4,1-4,4.8l0,0v2.1c0,3.1,1.7,4.8,4,4.8c2.2,0,4.1-1.3,4.1-4.3l0,0h-3c-0.4,0-0.7-0.3-0.7-0.6l0,0v-1.4
	c0-0.4,0.3-0.6,0.7-0.6l0,0h5.9c0.4,0,0.7,0.3,0.7,0.6l0,0v1.8c0,5.3-3.9,7.8-7.6,7.8c-3.8,0-7.6-2.4-7.6-7.8l0,0v-2.9
	C35.2,8.4,39.1,6,42.8,6z M59.1,10.6c3,0,6.4,1.2,6.4,6.9c0,5.7-3.4,6.9-6.4,6.9c-3,0-6.4-1.2-6.4-6.9
	C52.6,11.8,56.1,10.6,59.1,10.6z M106.8,6.3c1.1,0,2,0.1,2.9,0.4s1.5,0.7,2.1,1.1c0.5,0.5,1,1,1.3,1.5c0.3,0.5,0.4,1.1,0.5,1.6
	c0,0.1,0,0.3-0.1,0.4c-0.1,0.1-0.2,0.2-0.4,0.2l0,0h-2.3c-0.1,0-0.3,0-0.4-0.1c-0.1-0.1-0.2-0.2-0.3-0.4c-0.1-0.5-0.4-0.9-1-1.3
	c-0.5-0.4-1.3-0.5-2.1-0.5c-0.9,0-1.6,0.2-2.2,0.5c-0.5,0.3-0.8,0.8-0.8,1.5c0,0.5,0.1,0.8,0.4,1.2c0.3,0.3,0.7,0.6,1.3,0.8
	c0.6,0.2,1.4,0.5,2.4,0.7c1.4,0.3,2.6,0.7,3.5,1.1c0.9,0.4,1.6,0.9,2,1.6c0.4,0.6,0.6,1.4,0.6,2.4c0,1.1-0.3,2-0.9,2.8
	c-0.6,0.8-1.4,1.4-2.5,1.8c-1.1,0.4-2.3,0.6-3.7,0.6c-1.5,0-2.8-0.2-3.9-0.7c-1-0.5-1.8-1-2.4-1.8c-0.5-0.7-0.8-1.5-0.9-2.3
	c0-0.1,0-0.3,0.2-0.4c0.1-0.1,0.2-0.1,0.4-0.1l0,0h2.2c0.2,0,0.4,0,0.5,0.1c0.1,0.1,0.2,0.2,0.3,0.3c0.1,0.3,0.3,0.6,0.6,0.9
	c0.3,0.3,0.7,0.6,1.2,0.8c0.5,0.2,1.1,0.3,1.9,0.3c1.2,0,2.1-0.2,2.7-0.6c0.6-0.4,0.9-0.9,0.9-1.6c0-0.5-0.2-0.9-0.5-1.2
	c-0.3-0.3-0.8-0.6-1.5-0.8c-0.7-0.2-1.5-0.5-2.6-0.8c-1.2-0.3-2.3-0.7-3.1-1.1c-0.8-0.4-1.5-1-1.9-1.6c-0.4-0.6-0.6-1.5-0.6-2.5
	c0-1,0.3-1.8,0.8-2.6c0.5-0.7,1.3-1.3,2.2-1.8C104.3,6.5,105.4,6.3,106.8,6.3z M75.2,6.5c1.8,0,7.3,0.2,7.3,7.3l0,0v2.8
	c0,7.1-5.5,7.3-7.3,7.3l-6.2,0c-0.4,0-0.7-0.3-0.7-0.7l0,0V7.3c0-0.4,0.3-0.7,0.7-0.7l0,0L75.2,6.5z M92.3,6.5
	c0.2,0,0.4,0.1,0.6,0.2C93,6.8,93.1,7,93.1,7.2l0,0l6,16c0,0.1,0,0.2,0,0.2c0,0.1,0,0.3-0.1,0.4c-0.1,0.1-0.2,0.1-0.4,0.1l0,0h-2.2
	c-0.2,0-0.4-0.1-0.5-0.2c-0.1-0.1-0.2-0.2-0.2-0.3l0,0l-1.2-3h-7.4l-1.2,3c0,0.1-0.1,0.2-0.2,0.3c-0.1,0.1-0.3,0.2-0.5,0.2l0,0h-2.2
	c-0.1,0-0.3,0-0.4-0.1c-0.1-0.1-0.2-0.2-0.2-0.4c0-0.1,0-0.1,0-0.2l0,0l6-16c0-0.2,0.1-0.3,0.3-0.4c0.1-0.1,0.3-0.2,0.6-0.2l0,0
	H92.3z M26.6,13.2c-0.9,0-1.6,0.2-2.1,0.7c-0.6,0.6-0.9,1.8-0.9,3.6c0,1.8,0.3,3,0.9,3.6c0.5,0.5,1.2,0.7,2.1,0.7
	c0.9,0,1.6-0.2,2.1-0.7c0.6-0.6,0.9-1.8,0.9-3.6c0-1.8-0.3-3-0.9-3.6C28.2,13.4,27.5,13.2,26.6,13.2z M59.1,13.2
	c-0.9,0-1.6,0.2-2.1,0.7c-0.6,0.6-0.9,1.8-0.9,3.6c0,1.8,0.3,3,0.9,3.6c0.5,0.5,1.2,0.7,2.1,0.7s1.6-0.2,2.1-0.7
	c0.6-0.6,0.9-1.8,0.9-3.6c0-1.8-0.3-3-0.9-3.6C60.7,13.4,60,13.2,59.1,13.2z M74.4,9.4h-2.7V21h2.7c2.8,0,4.6-0.7,4.6-4.4l0,0v-2.8
	C79,10.2,77.2,9.4,74.4,9.4L74.4,9.4z M90.9,9.9l-2.8,7.7h5.7L90.9,9.9z"/>
<path id="Fill-51" class="st1" d="M18.5,25.7c-2.2,1.9-5,3-8.1,3c-3.1,0-5.9-1.1-8.1-3c-0.9,0.5-1.7,1.4-2.2,2.5
	C2.8,30.6,6.4,32,10.3,32c3.9,0,7.6-1.4,10.3-3.8C20.1,27.1,19.4,26.3,18.5,25.7"/>
</svg>
